<svg id="Layer_1" data-name="Layer 1" xmlns="http://www.w3.org/2000/svg" xmlns:xlink="http://www.w3.org/1999/xlink" viewBox="0 0 2487 569.1"><defs><style>.cls-1{fill:url(#linear-gradient);}.cls-2{fill:url(#linear-gradient-2);}.cls-3{fill:url(#linear-gradient-3);}.cls-4{fill:url(#linear-gradient-4);}.cls-5{fill:url(#linear-gradient-5);}.cls-6{fill:url(#linear-gradient-6);}.cls-7{fill:url(#linear-gradient-7);}.cls-8{fill:url(#linear-gradient-8);}.cls-9{fill:url(#linear-gradient-9);}</style><linearGradient id="linear-gradient" x1="1352.4" y1="503.67" x2="1352.4" y2="503.67" gradientUnits="userSpaceOnUse"><stop offset="0" stop-color="#fff"/><stop offset="0.02" stop-color="#f9f4f4"/><stop offset="0.14" stop-color="#d8bcbc"/><stop offset="0.25" stop-color="#ba8a8a"/><stop offset="0.37" stop-color="#a25f61"/><stop offset="0.49" stop-color="#8e3d3e"/><stop offset="0.61" stop-color="#7e2224"/><stop offset="0.74" stop-color="#730f11"/><stop offset="0.87" stop-color="#6c0406"/><stop offset="1" stop-color="#6a0002"/></linearGradient><linearGradient id="linear-gradient-2" x1="317.17" y1="472.86" x2="611.89" y2="472.86" gradientUnits="userSpaceOnUse"><stop offset="0" stop-color="#36003f"/><stop offset="0.18" stop-color="#550429"/><stop offset="0.38" stop-color="#700717"/><stop offset="0.58" stop-color="#83090a"/><stop offset="0.78" stop-color="#8e0b03"/><stop offset="1" stop-color="#920b00"/></linearGradient><linearGradient id="linear-gradient-3" x1="1918.58" y1="284.55" x2="2487" y2="284.55" xlink:href="#linear-gradient-2"/><linearGradient id="linear-gradient-4" x1="890.9" y1="286.9" x2="1155.79" y2="286.9" xlink:href="#linear-gradient-2"/><linearGradient id="linear-gradient-5" x1="1694.06" y1="287.02" x2="1958.94" y2="287.02" xlink:href="#linear-gradient-2"/><linearGradient id="linear-gradient-6" x1="1441.13" y1="287.75" x2="1688.68" y2="287.75" xlink:href="#linear-gradient-2"/><linearGradient id="linear-gradient-7" x1="0" y1="285.13" x2="292.52" y2="285.13" xlink:href="#linear-gradient-2"/><linearGradient id="linear-gradient-8" x1="1148.32" y1="291.16" x2="1427.56" y2="291.16" xlink:href="#linear-gradient-2"/><linearGradient id="linear-gradient-9" x1="623.54" y1="478.89" x2="889.49" y2="478.89" xlink:href="#linear-gradient-2"/></defs><path class="cls-1" d="M1352.4,503.67" transform="translate(-13 -187.73)"/><path class="cls-2" d="M611.88,468.39,506.77,382.6l-84.48,53.18V329.42l84.48,53.18,105.12-66.17L317.17,222.09h0V723.63h0l294.72-82.72L504.66,558.5l107.22-90.11ZM419.7,611.68V505.32l84.48,53.18Z" transform="translate(-13 -187.73)"/><polygon class="cls-3" points="2487 285.6 2313.08 237 2355.07 112.88 2246.6 171.5 2195.97 0 2146.09 170.84 2042.17 115.02 2081.89 237.56 1918.58 285.6 2082.14 338.58 2043.02 461.05 2146.69 412.39 2197.37 569.1 2247.19 411.24 2355.92 460.28 2313.33 338.01 2487 285.6"/><polygon class="cls-4" points="1155.79 468.55 1155.79 374.93 1090.84 327.42 1010.85 384.35 1010.85 189.46 1092.22 244.9 1155.79 193.36 1155.79 105.26 1045.68 35.94 1045.68 35.94 890.9 133.38 890.9 443.36 1041.02 537.87 1045.68 537.87 1155.79 468.55"/><polygon class="cls-5" points="1958.94 467.62 1958.94 374.54 1893.96 333.86 1814 383.91 1814 190.14 1889.57 237.44 1958.94 194.02 1958.94 106.42 1848.83 37.5 1848.83 37.5 1694.06 134.38 1694.06 442.57 1844.17 536.54 1848.83 536.54 1958.94 467.62"/><polygon class="cls-6" points="1555.72 438.26 1555.72 106.35 1441.13 37.5 1441.13 438.26 1441.13 537.99 1555.72 537.99 1591.49 537.99 1688.68 438.26 1555.72 438.26"/><polygon class="cls-7" points="0 36.03 292.52 285.13 0 534.22 0 36.03"/><polygon class="cls-8" points="1148.32 540.58 1292.42 39.26 1427.56 543.07 1148.32 540.58"/><path class="cls-9" d="M721.19,729.66l168.3-85V451.18l-80.27-59.35-104,59.35V344.82l104,47,80.28-47.93v-27L749.2,228.12h-1.81L623.54,321V499.87l82.37,60.88-82.37,47.77,97.65,121.14M705.91,560.75l103.3-55.43V615.24Z" transform="translate(-13 -187.73)"/></svg>